<?xml version="1.0" encoding="UTF-8"?>
<svg id="Calque_1" xmlns="http://www.w3.org/2000/svg" version="1.1" viewBox="0 0 595.28 841.89">
  <!-- Generator: Adobe Illustrator 29.5.1, SVG Export Plug-In . SVG Version: 2.1.0 Build 141)  -->
  <path d="M148.2,243.38l1.23-7.77c10.59-45.01,66.06-63.43,100.8-31.26,7.92,7.34,18.93,26.34,18.93,37.03v28.5h21.49c9.61,0,20.88,10.85,23.01,19.98,3.74,16.01,3.64,37.62,5.49,54.5.31,2.82.87,6.46,1.92,9.08,1.79,1.29,40.03.84,44.11-.01,7.12-1.48,19.94-12.67,19.94-20.06v-125.49h69.98v157.49c0,26.84-34.8,59.5-61.48,59.5h-65.48c.37,12.53,3.44,25.03,3.99,37.51.48,10.87,1.31,19.26-5.98,28-2.74,3.29-13.71,9.49-17.5,9.49h-97.47v73h-69.98v-74h-33.49c-11.34,0-21.84-13.65-22.52-24.46-1.13-17.76,4.23-42.76,6.02-61.05,3.17-32.45,6.23-64.64,9.99-97,1.35-11.66-.58-22.4,6.05-32.94,8.8-14,26.36-11.99,40.95-12.54v-27.5ZM167.2,270.88h81.47l1.5-1.5v-24c0-25.13-29.02-42.74-52.65-36.66-13.33,3.43-30.33,20.4-30.33,34.66v27.5ZM269.16,288.88v20.5c0,.39-4.28,5.65-5.01,5.99-4.5,2.04-13.98-.44-13.98-5.99v-19c-4.01-3.56-10.69-.6-15.45-.46-22.49.66-45.12-1.2-67.52.96v19.5c0,3.96-8.86,6.18-12.48,5.47-2.46-.48-6.52-5.34-6.52-7.47v-17.5h-21.49c-.27,0-4.15,2.98-4.28,3.21-1.3,2.31-.86,12.09-1.23,15.28-5.77,48.58-10.94,97.23-15,145.99-.57,6.8-6.64,24.51,5.51,24.51h29.49v-63.5c0-36,36.49-60.69,69.44-62.54,29.6-1.66,60.76,1.32,90.52.05-.42-11.58-2.72-23.08-3.99-34.51-.74-6.63.02-21.01-2.77-26.22-3.91-7.29-18.32-3.25-25.23-4.26ZM309.15,424.87h-76.48c-7.5,0-21.49,15.01-21.49,22.5v32.5h4v-28.5c0-3.75,4.49-12.52,7.34-15.15,1.02-.94,9.58-5.35,10.15-5.35h76.48v-6Z"/>
  <path d="M455.1,572.87h-69.98v-143.99c27.25.54,52.45-14.5,65.33-38.15l5.64-11.84-.99,193.99Z"/>
</svg>